PathFileType	4	(X/Y/Z)	TVC_41_BWA_06_walk_RCNL2025.trc
DataRate	CameraRate	NumFrames	NumMarkers	Units	OrigDataRate	OrigDataStartFrame	OrigNumFrames
100	100	12	27	mm	100	542	867
Frame#	Time	R_Shoulder			L_Shoulder			C7			J_Notch			R_Elbow			L_Elbow			R_Wrist			L_Wrist			R_Asis			L_Asis			R_Psis			L_Psis			Sacral			Thoracic			Sternum			R_Thigh_Lateral			R_Knee_Lateral			R_Shank_Lateral			R_Ankle_Lateral			R_Heel			R_Toe			L_Thigh_Lateral			L_Knee_Lateral			L_Shank_Lateral			L_Ankle_Lateral			L_Heel			L_Toe		
		X1	Y1	Z1	X2	Y2	Z2	X3	Y3	Z3	X4	Y4	Z4	X5	Y5	Z5	X6	Y6	Z6	X7	Y7	Z7	X8	Y8	Z8	X9	Y9	Z9	X10	Y10	Z10	X11	Y11	Z11	X12	Y12	Z12	X13	Y13	Z13	X14	Y14	Z14	X15	Y15	Z15	X16	Y16	Z16	X17	Y17	Z17	X18	Y18	Z18	X19	Y19	Z19	X20	Y20	Z20	X21	Y21	Z21	X22	Y22	Z22	X23	Y23	Z23	X24	Y24	Z24	X25	Y25	Z25	X26	Y26	Z26	X27	Y27	Z27
542	5.41000000	-648.324707	1263.379517	379.809265	-599.648499	1267.294067	43.397091	-677.474121	1323.241577	206.637161	-553.685181	1220.446167	227.749771	-761.867249	987.686462	398.781006	-649.478394	976.340332	-16.848942	-569.637909	915.718384	404.663391	-569.863831	785.106812	-31.619661	-602.031189	894.051819	350.639771	-579.100891	856.909973	110.643303	-763.351074	882.510437	264.556122	-758.255310	864.727356	178.736572	-760.803192	873.618896	221.646347	-723.968018	1029.522949	195.620728	-525.530945	1039.621094	220.478806	-597.093323	685.013611	463.301971	-510.532471	465.185486	405.489166	-521.711609	337.060638	479.372620	-466.290833	129.692932	431.655487	-505.581390	97.913261	381.115417	-352.145569	98.226707	444.942627	-641.590454	580.781677	36.705341	-634.549561	399.043793	141.439713	-670.969727	258.309814	92.982582	-721.232849	62.341721	175.704483	-766.119690	45.570263	217.567291	-599.658020	38.554688	193.109390
543	5.42000000	-645.698120	1263.213501	380.411896	-598.914246	1266.953125	43.676971	-675.832153	1322.898804	207.339966	-551.793274	1220.324341	227.875214	-758.555664	987.235657	400.045502	-649.302856	975.878540	-15.730269	-565.758057	915.805176	404.390350	-570.251923	784.423096	-30.558180	-599.067810	893.635071	351.300720	-577.117310	856.789734	111.077682	-760.729553	882.056396	265.806580	-755.899353	864.270996	179.996719	-758.314453	873.163696	222.901649	-721.848389	1029.046387	196.817215	-523.243652	1039.623901	220.569107	-593.233215	684.281677	463.421783	-507.668060	464.249146	404.401245	-518.649536	335.848022	478.108429	-463.521149	128.619064	429.483887	-502.946472	96.975487	379.135010	-349.255341	96.797264	441.842346	-639.609070	580.677246	37.107418	-633.117676	398.821594	141.845673	-669.926636	258.240906	93.272720	-721.102051	62.359425	175.764526	-766.082825	45.642853	217.576782	-599.673950	38.585510	193.142288
544	5.43000000	-643.026672	1263.035645	381.060364	-598.173950	1266.603516	44.010559	-674.168335	1322.536377	208.098557	-549.867065	1220.202637	228.040512	-755.156799	986.756958	401.340363	-649.093994	975.402954	-14.552242	-561.810577	915.880096	404.073029	-570.581665	783.735809	-29.451488	-596.038391	893.179016	352.011444	-575.065857	856.666626	111.548096	-758.006348	881.588440	267.111084	-753.465393	863.819214	181.303818	-755.735870	872.703827	224.207451	-719.651306	1028.543945	198.066879	-520.891418	1039.635254	220.694092	-589.253845	683.510132	463.496582	-504.996185	463.175232	403.273438	-515.951355	334.482605	476.767303	-461.381683	127.351341	427.175354	-500.941254	95.876976	377.027283	-347.043488	95.022316	438.596313	-637.668091	580.595886	37.505924	-631.693604	398.601959	142.234848	-668.924500	258.190186	93.524857	-720.977051	62.377743	175.807648	-766.049866	45.712440	217.570557	-599.689697	38.608932	193.159195
545	5.44000000	-640.307068	1262.845825	381.755157	-597.423035	1266.242920	44.399750	-672.479431	1322.153442	208.913513	-547.903442	1220.079590	228.246750	-751.673523	986.255371	402.671783	-648.846069	974.912598	-13.316333	-557.841644	915.926880	403.754608	-570.847931	783.043549	-28.303774	-592.939453	892.681030	352.770111	-572.946045	856.539185	112.053528	-755.179626	881.108093	268.471863	-750.954468	863.374634	182.658997	-753.067047	872.241364	225.565430	-717.374146	1028.015381	199.369644	-518.472473	1039.653564	220.854752	-585.174561	682.686523	463.521332	-502.511841	461.968475	402.101776	-513.567017	332.977509	475.352722	-459.864166	125.901863	424.734436	-499.564636	94.630745	374.800598	-345.504150	92.912201	435.203064	-635.778625	580.536743	37.907715	-630.284058	398.384430	142.609390	-667.968811	258.156250	93.740410	-720.858826	62.396736	175.838882	-766.021362	45.778198	217.555450	-599.704773	38.625015	193.162369
546	5.45000000	-637.536133	1262.643311	382.496674	-596.656494	1265.869263	44.846222	-670.761719	1321.749023	209.785233	-545.899353	1219.953979	228.494949	-748.108032	985.735413	404.046173	-648.553406	974.406311	-12.024053	-553.890594	915.931641	403.476456	-571.045959	782.345001	-27.119274	-589.766724	892.139221	353.573944	-570.757324	856.405701	112.593079	-752.248535	880.616577	269.890320	-748.368164	862.939453	184.062775	-750.308350	871.778015	226.976547	-715.014709	1027.460571	200.725128	-515.985413	1039.676880	221.051880	-581.015869	681.799011	463.492828	-500.210663	460.634186	400.881714	-511.449677	331.346588	473.866669	-458.952942	124.285011	422.166168	-498.807251	93.252205	372.460571	-344.623962	90.484375	431.663788	-633.946899	580.497620	38.319927	-628.892395	398.167999	142.972763	-667.060852	258.136902	93.922844	-720.747498	62.416008	175.862946	-765.997803	45.839745	217.537354	-599.719482	38.634346	193.154251
547	5.46000000	-634.710510	1262.427612	383.285187	-595.868958	1265.480469	45.351429	-669.011414	1321.322388	210.713943	-543.851562	1219.824097	228.786057	-744.461548	985.201050	405.470032	-648.210205	973.882812	-10.676935	-549.979462	915.887329	403.272186	-571.171112	781.638977	-25.902218	-586.515137	891.552856	354.419250	-568.499451	856.264160	113.166000	-749.213135	880.115356	271.366974	-745.708130	862.515686	185.515045	-747.460632	871.315521	228.441010	-712.571289	1026.880005	202.132523	-513.429016	1039.703125	221.286102	-576.797974	680.837280	463.410126	-498.089294	459.178314	399.609253	-509.561096	329.603699	472.309143	-458.624939	122.516998	419.476318	-498.650818	91.758484	370.009888	-344.381165	87.764046	427.983948	-632.174316	580.475159	38.749447	-627.518860	397.951141	143.329498	-666.197693	258.129608	94.077629	-720.642273	62.434822	175.883911	-765.979370	45.897144	217.520874	-599.734558	38.637947	193.137329
548	5.47000000	-631.827087	1262.197998	384.120880	-595.054871	1265.074585	45.916576	-667.224304	1320.872803	211.699631	-541.756714	1219.688599	229.120895	-740.734619	984.655579	406.949524	-647.810486	973.341003	-9.276547	-546.105408	915.796539	403.163284	-571.219086	780.924561	-24.656763	-583.179016	890.921875	355.301178	-566.171936	856.112366	113.771721	-746.074646	879.605835	272.901459	-742.976196	862.104553	187.015060	-744.525421	870.855194	229.958260	-710.042725	1026.273804	203.590591	-510.802460	1039.729736	221.557907	-572.539551	679.793213	463.274811	-496.146057	457.607422	398.281982	-507.875580	327.761902	470.678436	-458.849304	120.615395	416.671997	-499.067627	90.167648	367.449249	-344.744934	84.784668	424.174774	-630.457092	580.464661	39.202644	-626.160645	397.731812	143.685043	-665.372437	258.131409	94.212051	-720.541992	62.452339	175.905014	-765.966125	45.950855	217.509369	-599.750732	38.637115	193.114090
549	5.48000000	-628.882874	1261.953491	385.003845	-594.208496	1264.650146	46.542603	-665.396118	1320.400146	212.742065	-539.611633	1219.545776	229.500214	-736.927063	984.101501	408.490356	-647.348145	972.779785	-7.824496	-542.239014	915.671967	403.157593	-571.185760	780.200928	-23.386928	-579.752197	890.247314	356.214050	-563.774597	855.947876	114.409828	-742.834961	879.089417	274.492584	-740.174500	861.707031	188.561386	-741.504730	870.398224	231.526985	-707.428284	1025.642822	205.097641	-508.105164	1039.754272	221.867599	-568.256775	678.661194	463.090637	-494.380981	455.928802	396.900085	-506.381897	325.832886	468.972046	-459.586975	118.598686	413.762238	-500.020355	88.497803	364.778503	-345.674194	81.588127	420.254700	-628.786499	580.460754	39.685398	-624.812500	397.507751	144.045425	-664.574829	258.138977	94.335022	-720.445129	62.467800	175.928741	-765.957642	46.001656	217.504944	-599.768921	38.633278	193.086975
550	5.49000000	-625.875122	1261.692993	385.933990	-593.323669	1264.205933	47.230179	-663.522278	1319.903809	213.840805	-537.412964	1219.393921	229.924652	-733.038147	983.540405	410.097351	-646.816833	972.198242	-6.322463	-538.329926	915.534027	403.251312	-571.067139	779.467712	-22.096531	-576.228699	889.531128	357.151520	-561.307190	855.768372	115.080086	-739.497192	878.567505	276.138092	-737.305298	861.323425	190.151886	-738.401245	869.945465	233.144989	-704.727966	1024.987793	206.651474	-505.336945	1039.773804	222.215317	-563.962585	677.438232	462.863434	-492.795898	454.150421	395.467224	-505.082581	323.826019	467.188324	-460.790436	116.485840	410.758911	-501.461761	86.766037	361.998566	-347.117157	78.224487	416.250153	-627.148865	580.457581	40.202900	-623.467041	397.276428	144.416962	-663.792114	258.148438	94.456871	-720.350098	62.480644	175.956711	-765.953491	46.050591	217.508728	-599.789795	38.627842	193.058350
551	5.50000000	-622.801453	1261.415405	386.911133	-592.394165	1263.741089	47.979664	-661.598206	1319.384033	214.995087	-535.157593	1219.231323	230.394714	-729.066650	982.973206	411.774261	-646.209961	971.595764	-4.772245	-534.318512	915.405640	403.433624	-570.859161	778.724701	-20.789136	-572.603333	888.775818	358.107086	-558.769470	855.571228	115.782402	-736.065125	878.041504	277.834900	-734.370728	860.953613	191.783768	-735.217926	869.497559	234.809334	-701.942200	1024.310059	208.249374	-502.497894	1039.785522	222.601120	-559.666260	676.123962	462.600281	-491.394012	452.281219	393.991302	-503.991547	321.748138	465.328278	-462.403656	114.295990	407.677643	-503.334717	84.987411	359.112946	-349.010742	74.751266	412.196014	-625.525635	580.449341	40.759254	-622.115417	397.035278	144.806015	-663.010193	258.155518	94.588737	-720.255676	62.490681	175.989716	-765.952759	46.098816	217.521042	-599.813599	38.622074	193.030502
552	5.51000000	-619.660095	1261.119385	387.934967	-591.413574	1263.255249	48.791096	-659.619324	1318.840942	216.203934	-532.842468	1219.056519	230.910873	-725.011230	982.399780	413.523651	-645.520813	970.972046	-3.175804	-530.148804	915.307709	403.692337	-570.558014	777.972107	-19.467996	-568.872864	887.984314	359.074768	-556.161194	855.354004	116.516884	-732.543579	877.513062	279.579071	-731.373291	860.597046	193.453598	-731.958435	869.055054	236.516335	-699.071960	1023.610840	209.888123	-499.588501	1039.786499	223.024887	-555.373840	674.720886	462.309052	-490.179169	450.331238	392.484894	-503.130035	319.604034	463.397217	-464.362274	112.048210	404.538452	-505.571808	83.174400	356.129761	-351.280762	71.232056	408.135712	-623.894226	580.430725	41.357033	-620.747742	396.781586	145.218704	-662.215576	258.155945	94.741730	-720.161377	62.498142	176.027740	-765.954834	46.147514	217.541504	-599.840332	38.617035	193.005600
553	5.52000000	-616.449585	1260.803589	389.005005	-590.375183	1262.748657	49.664165	-657.581116	1318.275269	217.466095	-530.464539	1218.867798	231.473465	-720.870544	981.819397	415.346527	-644.742615	970.327332	-1.535326	-525.777954	915.256134	404.017944	-570.159912	777.210510	-18.136022	-565.036560	887.159607	360.049500	-553.482117	855.114258	117.283791	-728.938171	876.983887	281.365753	-728.315063	860.252747	195.157303	-728.626617	868.618317	238.261528	-696.118713	1022.891968	211.563980	-496.609436	1039.774048	223.486450	-551.088501	673.234070	461.997742	-489.154846	448.311798	390.965332	-502.522217	317.397339	461.406250	-466.594360	109.761444	401.366455	-508.095612	81.336769	353.062988	-353.842743	67.734535	404.120575	-622.229370	580.396851	41.996902	-619.353577	396.512634	145.660706	-661.396240	258.145874	94.926086	-720.067566	62.503727	176.070038	-765.958801	46.197765	217.569138	-599.869690	38.613522	192.985550
